# xmcd
#
# Track frame offsets: 
#        150
#        7163
#        49646
#        109040
#        130970
#        132329
#        155181
#        174362
#        220671
#
# Disc length: 3303 seconds
#
# Revision: 0
# Processed by: cddbd v1.5.2PL0 Copyright (c) Steve Scherf et al.
# Submitted via: ExactAudioCopy v1.3
#
DISCID=7b0ce509
DTITLE=Out of Favor Boys - 7.18.9
DYEAR=2010
DGENRE=Blues
TTITLE0=Consuming Chuck Norris (Live)
TTITLE1=Good Booty and Barbecue - Folsom Prison Blues (Live)
TTITLE2=Dirty Dishes (Live)
TTITLE3=Lady at the Casino (Live)
TTITLE4=Chuck Norris Is Dead (Live)
TTITLE5=Come When I Call (Live)
TTITLE6=One More Chance (Live)
TTITLE7=Old Love (Live)
TTITLE8=Steamroller (Live)
EXTD=
EXTT0=
EXTT1=
EXTT2=
EXTT3=
EXTT4=
EXTT5=
EXTT6=
EXTT7=
EXTT8=
PLAYORDER=
